<?xml version="1.0" standalone="no"?>
<!DOCTYPE svg PUBLIC "-//W3C//DTD SVG 20010904//EN"
 "http://www.w3.org/TR/2001/REC-SVG-20010904/DTD/svg10.dtd">
<svg version="1.0" xmlns="http://www.w3.org/2000/svg"
 width="4267.000000pt" height="4267.000000pt" viewBox="0 0 4267.000000 4267.000000"
 preserveAspectRatio="xMidYMid meet">
<metadata>
Created by potrace 1.11, written by Peter Selinger 2001-2013
</metadata>
<g transform="translate(0.000000,4267.000000) scale(0.100000,-0.100000)"
fill="#000000" stroke="none">
<path d="M20907 42664 c-1 -1 -112 -5 -247 -9 -304 -9 -484 -17 -675 -30 -27
-2 -90 -6 -140 -9 -117 -8 -219 -16 -275 -21 -25 -3 -74 -7 -110 -10 -36 -2
-92 -7 -125 -11 -33 -3 -78 -7 -100 -9 -22 -1 -62 -6 -90 -9 -49 -6 -124 -14
-195 -21 -47 -5 -204 -23 -250 -30 -33 -5 -129 -17 -160 -20 -14 -1 -50 -6
-80 -9 -51 -7 -72 -10 -140 -21 -14 -2 -45 -6 -70 -9 -25 -3 -54 -8 -65 -10
-11 -2 -40 -7 -65 -10 -25 -3 -54 -8 -65 -10 -11 -2 -40 -7 -65 -10 -25 -3
-56 -8 -70 -11 -13 -2 -40 -7 -60 -10 -20 -3 -45 -7 -57 -9 -11 -3 -38 -7 -59
-11 -22 -3 -54 -8 -73 -11 -18 -3 -43 -8 -55 -10 -11 -2 -34 -7 -51 -9 -123
-22 -164 -29 -244 -46 -30 -6 -64 -12 -75 -14 -18 -2 -64 -11 -156 -31 -14 -3
-36 -7 -50 -10 -14 -2 -36 -7 -50 -10 -14 -3 -36 -8 -50 -11 -14 -2 -45 -9
-70 -14 -63 -15 -81 -18 -115 -24 -16 -3 -38 -8 -47 -11 -9 -3 -26 -7 -37 -9
-12 -3 -31 -7 -43 -10 -13 -3 -36 -8 -53 -11 -16 -3 -51 -11 -77 -19 -27 -8
-48 -12 -48 -10 0 2 -18 -2 -40 -10 -22 -8 -40 -12 -40 -10 0 2 -15 -1 -32 -6
-18 -6 -42 -12 -53 -14 -11 -3 -29 -7 -40 -9 -58 -13 -339 -85 -435 -112 -30
-9 -62 -17 -70 -19 -8 -2 -35 -9 -60 -16 -60 -17 -62 -17 -85 -22 -11 -3 -42
-12 -70 -20 -27 -9 -122 -36 -210 -62 -159 -46 -376 -111 -405 -122 -8 -3 -19
-7 -25 -8 -5 -2 -66 -21 -135 -45 -69 -23 -132 -43 -140 -45 -19 -4 -339 -114
-365 -125 -11 -5 -56 -21 -100 -36 -44 -14 -91 -31 -105 -37 -14 -5 -29 -11
-35 -13 -34 -10 -337 -126 -545 -208 -244 -97 -283 -113 -350 -144 -19 -8 -37
-16 -40 -17 -6 -1 -158 -65 -179 -75 -33 -16 -96 -44 -106 -46 -5 -1 -41 -17
-80 -34 -38 -18 -90 -41 -115 -52 -25 -11 -83 -38 -128 -59 -46 -22 -85 -39
-87 -39 -25 0 -1110 -545 -1135 -570 -3 -3 -27 -16 -55 -30 -27 -13 -79 -41
-115 -61 -68 -38 -129 -72 -207 -115 -163 -91 -545 -317 -728 -431 -44 -27
-105 -65 -135 -83 -30 -19 -57 -37 -60 -41 -3 -3 -16 -12 -30 -19 -51 -26
-507 -327 -695 -458 -81 -57 -179 -126 -190 -134 -5 -5 -77 -56 -160 -115
-304 -217 -997 -752 -1108 -857 -15 -14 -32 -26 -37 -26 -4 0 -10 -3 -12 -8
-1 -4 -50 -47 -108 -95 -425 -358 -855 -751 -1270 -1162 -154 -152 -529 -539
-621 -640 -30 -33 -57 -62 -60 -65 -3 -3 -57 -61 -120 -130 -99 -108 -146
-162 -288 -325 -14 -16 -53 -61 -87 -100 -104 -120 -313 -372 -432 -519 -40
-50 -87 -109 -105 -130 -18 -22 -110 -141 -205 -265 -219 -287 -195 -256 -301
-401 -50 -69 -94 -129 -99 -135 -30 -37 -260 -368 -386 -555 -31 -47 -63 -94
-71 -105 -58 -84 -155 -237 -155 -244 0 -5 -3 -11 -8 -13 -4 -1 -50 -70 -101
-153 -52 -82 -108 -172 -126 -200 -79 -125 -95 -152 -112 -185 -9 -19 -20 -37
-23 -40 -6 -5 -168 -279 -210 -355 -33 -59 -100 -178 -110 -195 -32 -53 -217
-394 -290 -535 -67 -128 -283 -561 -333 -665 -111 -234 -157 -332 -157 -336 0
-3 -15 -37 -34 -77 -19 -40 -44 -94 -56 -122 -12 -27 -33 -74 -46 -103 -13
-29 -24 -55 -24 -58 0 -4 -10 -27 -23 -53 -13 -25 -25 -50 -26 -56 -2 -5 -11
-28 -21 -50 -17 -38 -104 -247 -137 -330 -9 -22 -21 -53 -28 -70 -17 -38 -99
-248 -101 -255 0 -3 -4 -14 -9 -25 -23 -56 -67 -171 -70 -180 -1 -5 -7 -23
-14 -40 -6 -16 -19 -50 -27 -75 -9 -25 -20 -54 -26 -65 -5 -12 -10 -27 -12
-35 -2 -8 -6 -23 -9 -32 -10 -25 -16 -47 -17 -53 0 -3 -7 -19 -15 -35 -8 -16
-15 -31 -14 -32 0 -2 -4 -16 -10 -31 -6 -16 -11 -34 -11 -41 0 -6 -4 -16 -8
-21 -7 -8 -16 -32 -37 -105 -1 -3 -7 -18 -13 -33 -7 -16 -12 -34 -12 -41 0 -7
-3 -16 -7 -20 -4 -3 -8 -12 -9 -19 -2 -7 -26 -82 -54 -167 -28 -85 -53 -159
-54 -165 -2 -5 -11 -37 -21 -70 -11 -33 -19 -62 -20 -65 -1 -8 -55 -182 -65
-210 -11 -33 -51 -167 -54 -183 -2 -7 -10 -38 -20 -69 -9 -31 -19 -69 -22 -84
-3 -15 -7 -31 -10 -36 -4 -7 -53 -174 -54 -185 0 -2 0 -4 -1 -5 0 -2 -2 -10
-4 -18 -2 -8 -11 -42 -20 -75 -17 -62 -22 -80 -30 -116 -2 -11 -7 -29 -10 -39
-3 -10 -8 -27 -10 -37 -3 -10 -11 -45 -20 -78 -15 -59 -19 -76 -29 -123 -3
-13 -8 -32 -11 -42 -3 -10 -8 -28 -10 -39 -3 -12 -7 -30 -10 -42 -2 -11 -6
-28 -9 -37 -3 -9 -7 -28 -10 -42 -3 -14 -8 -36 -11 -50 -3 -14 -8 -36 -11 -50
-3 -14 -7 -33 -10 -42 -3 -10 -7 -30 -10 -45 -3 -16 -9 -41 -14 -58 -5 -16
-11 -43 -14 -60 -3 -16 -7 -41 -11 -55 -3 -14 -7 -36 -10 -50 -11 -55 -14 -72
-20 -90 -3 -10 -8 -31 -10 -46 -2 -16 -7 -40 -9 -54 -3 -14 -8 -36 -11 -50 -2
-14 -7 -36 -10 -50 -2 -14 -7 -36 -9 -50 -3 -14 -8 -36 -11 -50 -3 -14 -8 -38
-10 -55 -3 -16 -8 -37 -10 -45 -2 -8 -6 -33 -10 -55 -6 -42 -11 -73 -20 -115
-6 -29 -22 -121 -30 -167 -3 -18 -7 -48 -10 -65 -3 -18 -8 -45 -10 -60 -3 -16
-7 -40 -10 -55 -9 -59 -14 -89 -20 -119 -2 -18 -7 -49 -10 -70 -3 -22 -7 -48
-9 -60 -2 -12 -8 -45 -11 -75 -4 -30 -9 -63 -11 -74 -7 -43 -13 -92 -19 -135
-3 -25 -7 -56 -10 -70 -3 -14 -7 -45 -10 -70 -2 -25 -7 -63 -10 -85 -2 -22 -7
-60 -10 -85 -4 -25 -8 -58 -10 -75 -2 -16 -7 -55 -10 -85 -3 -30 -7 -71 -9
-90 -4 -32 -13 -117 -22 -195 -1 -16 -6 -61 -9 -100 -4 -38 -8 -86 -10 -105
-3 -32 -10 -114 -21 -235 -2 -27 -6 -86 -9 -130 -3 -44 -7 -111 -10 -150 -29
-356 -49 -956 -49 -1455 0 -286 9 -749 19 -940 3 -62 15 -300 20 -385 4 -79
17 -261 20 -295 2 -19 6 -75 10 -125 3 -49 8 -106 10 -125 2 -19 6 -69 10
-110 3 -41 7 -91 10 -110 2 -19 7 -64 10 -100 3 -36 7 -81 10 -100 2 -19 6
-57 10 -85 3 -27 8 -70 11 -95 3 -25 7 -63 9 -84 3 -21 7 -55 9 -75 3 -20 8
-60 11 -90 4 -30 8 -63 10 -73 2 -11 7 -46 10 -79 4 -33 8 -70 11 -82 2 -12 7
-42 10 -67 3 -25 7 -58 10 -75 3 -16 7 -45 10 -64 2 -19 6 -47 9 -62 3 -15 7
-44 10 -65 3 -22 7 -50 10 -64 2 -13 7 -42 10 -65 3 -22 13 -78 21 -125 8 -47
17 -94 18 -105 2 -11 6 -38 10 -60 3 -23 8 -52 11 -65 5 -25 15 -79 21 -115 2
-11 6 -33 10 -48 3 -16 7 -38 9 -50 2 -12 6 -32 8 -43 3 -12 8 -37 11 -55 3
-19 8 -45 11 -59 3 -14 8 -38 11 -55 3 -16 9 -48 14 -70 5 -22 11 -53 14 -70
9 -49 14 -73 31 -153 3 -12 7 -30 9 -40 3 -9 14 -62 26 -117 11 -55 26 -118
32 -140 6 -22 11 -44 12 -50 13 -62 47 -202 83 -345 24 -96 46 -183 49 -193 2
-9 6 -26 9 -37 3 -11 7 -30 10 -41 2 -12 9 -36 15 -54 6 -18 13 -42 15 -55 2
-13 16 -64 31 -114 14 -50 28 -98 30 -106 2 -8 10 -40 19 -70 9 -30 17 -59 18
-65 2 -5 6 -16 10 -22 5 -7 6 -13 3 -13 -2 0 -1 -12 4 -27 5 -16 20 -68 35
-118 14 -49 29 -97 32 -105 3 -8 7 -20 8 -26 7 -28 77 -247 167 -514 54 -162
100 -300 101 -307 2 -7 6 -16 10 -19 4 -4 7 -13 7 -20 0 -7 5 -25 12 -41 6
-15 12 -32 13 -38 2 -5 24 -66 50 -135 25 -69 48 -133 50 -142 2 -10 10 -32
18 -50 8 -18 28 -69 45 -113 59 -154 124 -320 137 -350 7 -16 23 -57 35 -90
13 -33 28 -69 34 -80 5 -11 11 -25 12 -31 1 -6 9 -27 17 -45 41 -90 67 -150
67 -154 0 -2 12 -30 26 -62 15 -32 28 -62 29 -68 2 -5 16 -39 33 -75 68 -149
82 -181 82 -185 0 -2 21 -48 46 -102 25 -54 59 -125 74 -158 182 -391 409
-841 600 -1190 51 -93 93 -170 112 -202 10 -18 27 -50 39 -70 21 -38 125 -218
144 -251 22 -37 81 -138 90 -155 45 -79 171 -283 177 -285 5 -2 8 -8 8 -13 0
-12 132 -223 142 -227 5 -2 8 -8 8 -13 0 -5 26 -49 57 -97 31 -48 90 -139 131
-202 41 -63 79 -116 83 -118 5 -2 9 -10 9 -17 0 -7 4 -15 8 -17 4 -1 20 -24
35 -50 15 -26 33 -53 40 -60 6 -7 33 -45 59 -84 43 -66 217 -316 235 -339 5
-5 20 -26 33 -45 13 -19 28 -39 32 -45 4 -5 96 -128 204 -273 107 -145 201
-271 209 -280 7 -9 107 -134 221 -277 323 -405 710 -857 983 -1148 20 -21 50
-53 66 -71 224 -243 854 -875 1049 -1051 6 -6 47 -44 91 -84 44 -41 103 -95
130 -120 66 -61 319 -286 370 -329 22 -19 54 -46 70 -61 17 -15 104 -89 195
-165 91 -75 174 -145 185 -155 11 -9 40 -33 65 -52 25 -18 47 -37 50 -41 3 -3
34 -29 70 -57 36 -28 72 -57 80 -63 8 -7 60 -48 115 -91 55 -43 108 -85 119
-94 60 -49 480 -361 646 -478 107 -77 197 -142 200 -145 3 -3 12 -9 22 -15 9
-5 162 -107 340 -226 306 -205 513 -339 524 -339 3 0 10 -5 17 -10 33 -28 233
-150 245 -150 6 0 12 -4 14 -8 4 -10 174 -112 187 -112 5 0 11 -4 13 -8 2 -5
26 -22 55 -38 28 -16 116 -66 195 -111 160 -91 212 -120 355 -199 78 -43 210
-114 338 -181 132 -69 708 -356 795 -396 122 -55 237 -109 262 -123 15 -8 30
-15 33 -15 5 0 78 -32 173 -75 29 -13 80 -36 115 -50 34 -14 90 -39 125 -55
35 -16 65 -29 67 -29 4 0 182 -74 220 -91 27 -12 397 -160 410 -163 6 -2 24
-8 40 -15 17 -6 53 -20 80 -31 28 -10 79 -30 115 -43 95 -37 508 -184 535
-191 6 -2 17 -6 25 -9 37 -14 510 -168 530 -172 15 -3 98 -28 115 -35 11 -4
47 -16 80 -25 33 -9 71 -21 85 -25 34 -12 337 -99 473 -135 30 -8 50 -14 112
-30 33 -8 68 -18 78 -20 9 -3 26 -7 37 -10 11 -3 28 -7 38 -10 78 -20 261 -66
277 -69 11 -2 27 -7 35 -10 8 -3 27 -8 43 -11 39 -7 96 -20 140 -31 12 -3 33
-7 47 -10 14 -3 43 -10 65 -16 39 -10 54 -13 105 -23 14 -3 36 -7 50 -10 14
-3 36 -8 50 -11 14 -3 33 -7 42 -10 10 -3 30 -7 45 -10 16 -3 35 -7 43 -9 8
-2 31 -7 50 -10 19 -3 42 -8 50 -10 8 -2 29 -7 45 -10 34 -6 69 -12 105 -20
26 -6 57 -12 100 -20 14 -3 36 -7 50 -10 14 -3 41 -8 60 -11 19 -3 42 -7 50
-9 8 -2 31 -7 50 -10 19 -3 85 -15 145 -25 106 -19 146 -26 210 -36 17 -2 41
-6 55 -9 38 -7 80 -14 125 -19 22 -3 49 -8 60 -10 21 -4 103 -16 145 -21 14
-2 39 -5 55 -8 17 -3 53 -8 80 -12 28 -3 61 -7 74 -10 14 -2 45 -7 70 -10 25
-3 62 -7 81 -10 19 -2 59 -7 88 -10 29 -4 62 -8 72 -10 10 -2 47 -6 82 -10 35
-3 81 -8 103 -11 22 -2 60 -7 85 -9 25 -3 66 -7 93 -10 107 -11 242 -24 317
-30 34 -3 128 -11 240 -20 30 -3 91 -7 135 -10 44 -3 109 -7 145 -10 62 -4
211 -12 365 -20 520 -26 1499 -26 2025 0 181 9 310 16 360 20 30 3 93 7 140
10 47 3 110 7 140 10 30 2 93 7 140 10 47 3 96 8 110 10 14 2 59 7 100 10 41
3 89 8 105 9 17 2 59 7 95 10 36 3 85 8 110 11 25 3 68 7 95 10 28 3 66 7 85
10 44 6 127 16 160 20 24 2 76 9 165 21 22 3 51 7 65 9 14 2 50 7 80 10 30 3
62 8 70 10 8 2 39 7 69 10 30 4 63 9 75 11 12 3 37 7 56 9 42 5 84 12 128 19
17 3 47 9 65 12 17 3 43 7 57 9 67 9 116 17 180 30 34 6 91 16 115 19 11 2 34
6 50 9 17 4 45 9 64 12 19 3 37 7 40 9 3 2 26 7 51 10 25 3 56 9 70 12 14 3
36 7 50 10 14 2 36 7 50 9 42 9 74 15 100 20 47 9 75 15 100 20 14 3 45 10 70
15 25 5 54 11 65 14 23 5 161 36 188 41 10 2 26 6 35 9 9 3 29 7 45 10 15 3
35 7 45 10 9 3 28 7 42 10 14 3 35 7 48 10 36 9 127 31 172 41 8 2 105 27 215
55 110 28 211 53 224 56 14 3 28 7 33 10 4 3 16 7 25 9 10 1 45 10 78 19 33 9
67 18 75 20 8 2 42 12 75 22 33 10 65 19 70 20 6 1 51 14 100 29 50 14 95 28
100 29 6 1 37 10 70 20 33 10 61 18 63 17 1 -1 18 5 37 13 20 9 38 15 40 16 3
0 7 1 10 1 3 1 8 2 13 3 75 17 933 305 1057 356 11 5 54 21 95 35 41 15 84 31
95 35 11 5 47 18 80 30 33 13 76 29 95 37 58 25 67 28 305 123 127 51 248 100
270 110 22 10 74 32 115 49 99 42 100 43 204 90 49 23 95 41 102 41 8 0 14 5
14 10 0 6 5 10 11 10 5 0 31 9 57 21 91 41 178 80 246 112 98 45 867 429 951
475 39 21 108 58 155 83 125 68 352 194 457 256 50 29 96 53 102 53 6 0 11 5
11 10 0 6 7 10 15 10 8 0 15 5 15 10 0 6 5 10 11 10 10 0 508 297 519 309 3 3
21 15 40 25 124 69 776 506 1092 732 86 62 172 123 190 136 18 13 35 25 38 28
3 3 68 52 144 109 77 57 144 107 150 112 6 5 76 60 156 122 410 318 801 644
1176 982 94 85 223 203 294 269 47 44 103 96 125 117 108 101 746 742 860 864
187 201 237 254 281 304 21 25 46 52 55 61 32 34 358 409 443 510 48 58 97
115 107 128 11 13 52 63 90 110 39 48 84 103 100 122 389 468 1033 1366 1419
1980 127 202 244 391 254 410 8 18 22 40 59 97 15 24 27 45 27 49 0 3 8 18 19
32 10 15 29 47 43 72 14 25 57 99 95 165 38 66 89 156 114 200 24 44 54 98 66
120 13 22 31 57 40 77 10 21 21 38 25 38 5 0 8 9 8 20 0 11 3 20 8 20 4 0 12
10 17 23 6 12 45 87 87 167 113 215 253 495 337 670 41 85 88 184 106 220 18
36 33 68 34 72 1 4 17 42 36 83 19 41 51 109 70 151 19 42 35 77 35 80 0 2 12
29 27 61 41 91 154 356 158 373 2 8 13 35 26 60 12 24 30 67 39 95 10 27 41
104 68 170 50 122 106 266 107 275 0 3 15 41 32 85 58 145 277 763 287 810 1
6 25 80 53 165 28 85 65 202 83 260 17 58 34 114 38 125 3 11 6 22 7 25 0 3 6
21 13 41 7 20 15 45 17 55 3 10 16 60 31 109 33 116 56 197 58 210 1 6 10 37
20 70 10 33 19 67 21 75 2 8 11 42 20 75 66 240 211 844 231 965 3 14 7 33 10
42 3 9 7 27 9 39 3 13 14 68 26 123 11 56 22 110 25 121 2 11 6 31 9 45 6 26
7 35 21 110 4 25 8 47 9 50 1 3 5 25 9 50 5 25 10 54 12 65 2 11 6 31 9 45 3
14 7 34 9 45 3 18 12 73 22 135 3 14 7 36 9 50 14 71 25 135 30 180 2 14 5 39
9 55 9 53 16 91 20 126 3 19 7 48 10 64 3 17 8 50 11 75 3 25 8 56 10 70 2 14
7 48 11 75 3 28 7 59 9 70 5 30 15 115 20 160 3 22 7 51 10 65 2 14 7 52 10
85 3 33 7 71 10 83 2 13 7 53 10 90 4 37 8 78 10 92 2 14 7 52 10 85 3 33 7
80 10 105 3 25 7 72 10 105 3 33 8 80 10 105 12 126 19 222 30 385 4 61 9 128
10 150 28 383 40 782 40 1390 -1 578 -7 831 -30 1230 -4 72 -9 148 -10 170 -7
130 -29 400 -50 625 -2 19 -6 69 -10 110 -4 41 -9 86 -10 100 -2 14 -6 50 -9
80 -3 30 -8 75 -11 100 -3 25 -8 68 -11 95 -3 28 -7 61 -9 75 -2 14 -6 48 -9
75 -4 28 -9 70 -12 95 -3 25 -7 56 -9 70 -4 31 -15 116 -20 150 -2 14 -7 45
-10 70 -3 25 -9 59 -11 75 -6 33 -8 45 -19 124 -3 30 -9 63 -11 75 -2 11 -6
36 -9 56 -3 20 -8 47 -10 60 -3 14 -8 45 -11 70 -3 25 -8 53 -10 63 -3 10 -7
30 -9 45 -2 15 -7 43 -10 62 -4 19 -8 44 -9 55 -2 11 -6 34 -9 50 -4 17 -9 44
-12 60 -3 17 -7 40 -9 51 -2 12 -7 38 -10 58 -3 21 -13 72 -22 114 -9 42 -18
88 -20 102 -3 14 -7 32 -9 40 -2 8 -7 29 -9 45 -6 35 -55 273 -61 295 -3 15
-32 145 -41 185 -6 32 -14 63 -20 88 -3 12 -10 40 -14 62 -10 43 -17 73 -25
105 -10 38 -16 65 -21 85 -2 11 -15 65 -29 120 -14 55 -27 108 -30 118 -2 10
-7 27 -10 37 -3 10 -7 27 -9 37 -2 10 -11 45 -20 78 -9 33 -19 69 -21 79 -6
26 -53 195 -64 231 -11 36 -30 108 -30 115 0 3 -11 37 -24 75 -13 39 -24 72
-24 75 -1 3 -7 25 -14 50 -7 25 -13 50 -15 55 -1 6 -12 40 -24 78 -12 37 -23
73 -24 80 -1 6 -7 26 -13 42 -11 29 -84 260 -89 280 -8 36 -220 647 -241 695
-3 8 -7 17 -7 20 -1 3 -7 19 -13 35 -6 17 -28 74 -47 127 -20 53 -41 109 -47
125 -13 32 -11 27 -74 188 -26 66 -52 131 -58 145 -6 14 -11 27 -12 30 -5 14
-18 47 -25 65 -5 11 -32 76 -61 145 -59 143 -74 179 -130 305 -13 28 -24 55
-25 60 -1 6 -19 46 -39 90 -20 44 -43 94 -50 111 -61 135 -99 216 -205 439
-111 234 -348 701 -430 850 -15 28 -43 79 -62 115 -95 175 -171 311 -232 413
-25 43 -46 80 -46 82 0 7 -283 480 -290 485 -4 3 -10 15 -14 28 -4 12 -12 22
-17 22 -5 0 -9 5 -9 10 0 13 -241 394 -269 427 -6 7 -11 15 -11 18 0 10 -312
470 -321 473 -5 2 -9 8 -9 13 0 5 -28 49 -62 97 -35 48 -81 113 -102 144 -21
32 -46 65 -55 75 -9 10 -25 32 -35 48 -15 24 -160 221 -199 270 -10 13 -86
113 -117 155 -157 209 -615 779 -729 905 -9 11 -80 92 -156 180 -203 234 -351
397 -589 650 -171 181 -680 690 -835 835 -62 58 -138 129 -169 159 -63 59 -59
55 -323 290 -253 225 -285 253 -439 382 -74 62 -140 117 -147 123 -42 37 -498
401 -533 426 -19 13 -37 27 -40 30 -3 3 -43 35 -90 70 -47 35 -89 68 -95 73
-5 4 -53 39 -105 77 -52 38 -100 74 -106 78 -6 5 -87 64 -180 130 -93 66 -180
129 -194 140 -14 10 -77 54 -140 97 -63 43 -136 94 -162 112 -26 18 -52 33
-57 33 -5 0 -11 4 -13 8 -4 10 -96 72 -108 72 -4 0 -10 4 -12 8 -4 10 -206
142 -218 142 -4 0 -10 4 -12 8 -4 11 -502 322 -516 322 -6 0 -12 4 -14 8 -5
13 -641 382 -657 382 -5 0 -11 3 -13 8 -1 4 -23 17 -48 30 -25 13 -88 47 -140
75 -222 119 -313 166 -640 329 -386 191 -471 233 -479 233 -4 1 -15 6 -26 12
-11 6 -65 31 -120 56 -55 25 -125 56 -155 70 -30 14 -77 35 -105 47 -27 12
-75 33 -105 47 -30 14 -59 26 -65 27 -5 2 -37 15 -70 30 -33 15 -64 29 -70 30
-5 2 -23 8 -38 14 -16 7 -33 12 -38 12 -5 0 -9 5 -9 10 0 6 -5 10 -12 10 -10
0 -223 83 -293 115 -41 19 -296 116 -435 167 -30 11 -64 24 -75 28 -25 10
-118 44 -125 46 -3 0 -12 4 -20 7 -29 13 -245 89 -262 92 -9 2 -26 9 -37 15
-12 6 -21 8 -21 4 0 -3 -6 -2 -12 3 -7 6 -26 14 -43 18 -38 10 -22 5 -208 69
-87 29 -161 54 -165 55 -11 2 -202 61 -247 76 -43 15 -347 104 -374 110 -9 2
-56 16 -106 31 -49 14 -94 27 -100 29 -27 6 -78 19 -156 41 -47 14 -96 27
-108 29 -13 2 -31 7 -41 10 -10 3 -28 8 -41 10 -12 2 -36 9 -53 14 -17 6 -42
12 -56 15 -14 2 -45 9 -70 16 -25 7 -53 14 -63 16 -10 2 -27 6 -37 9 -10 3
-27 8 -37 10 -16 3 -221 51 -263 60 -63 15 -381 85 -405 89 -49 9 -76 15 -93
20 -9 3 -33 7 -52 10 -19 3 -46 8 -60 11 -45 10 -85 17 -105 20 -11 2 -45 9
-75 15 -30 6 -67 13 -82 15 -15 2 -35 6 -45 9 -10 3 -36 8 -58 11 -23 3 -52 8
-65 10 -48 10 -137 25 -175 31 -16 2 -41 6 -55 9 -13 2 -42 7 -65 10 -22 3
-65 10 -95 15 -30 5 -73 12 -95 15 -23 3 -50 7 -60 9 -11 2 -45 7 -75 11 -54
6 -82 10 -137 19 -53 9 -242 33 -317 41 -21 3 -55 7 -75 10 -42 6 -92 11 -181
21 -36 3 -76 8 -90 9 -14 2 -52 6 -85 9 -33 4 -80 8 -105 11 -60 6 -141 14
-220 20 -36 3 -84 7 -107 10 -51 5 -151 12 -428 30 -475 29 -735 37 -1303 39
-260 1 -474 1 -475 0z"/>
</g>
</svg>
